<svg width="249" height="105" viewBox="0 0 249 105" fill="none" xmlns="http://www.w3.org/2000/svg">
<path d="M73.6204 71C73.0554 71 72.6417 70.8688 72.3794 70.6065C72.1171 70.3442 71.9859 69.9406 71.9859 69.3958V34.9505C71.9859 34.3854 72.1171 33.9819 72.3794 33.7397C72.6417 33.4774 73.0554 33.3462 73.6204 33.3462H92.3868C92.7702 33.3462 93.0426 33.4673 93.204 33.7095C93.3856 33.9516 93.4764 34.3653 93.4764 34.9505V35.8282C93.4764 36.3731 93.3856 36.7766 93.204 37.039C93.0426 37.3013 92.7702 37.4325 92.3868 37.4325H76.7381V49.6911H90.7825C91.1659 49.6911 91.4384 49.8223 91.5998 50.0846C91.7814 50.3469 91.8722 50.7606 91.8722 51.3256V52.1429C91.8722 52.7079 91.7814 53.1215 91.5998 53.3839C91.4384 53.626 91.1659 53.7471 90.7825 53.7471H76.7381V66.9138H92.4473C92.8307 66.9138 93.1031 67.0449 93.2645 67.3073C93.4462 67.5494 93.537 67.953 93.537 68.518V69.3958C93.537 69.9406 93.4462 70.3442 93.2645 70.6065C93.1031 70.8688 92.8307 71 92.4473 71H73.6204ZM99.5906 71.0908C98.7633 71.0908 98.168 71.0202 97.8048 70.8789C97.4618 70.7377 97.2902 70.5056 97.2902 70.1828C97.2902 69.9406 97.4315 69.6177 97.714 69.2142L106.431 56.5923L98.3496 44.606C98.0873 44.2025 97.9561 43.8897 97.9561 43.6677C97.9561 43.3449 98.1377 43.1128 98.501 42.9716C98.8642 42.8303 99.4897 42.7597 100.378 42.7597H100.892C101.498 42.7597 101.982 42.8202 102.345 42.9413C102.708 43.0422 103.001 43.2541 103.223 43.5769L108.338 51.2348C108.641 51.7191 109.004 52.3547 109.428 53.1417C109.509 53.0005 109.65 52.7583 109.852 52.4153C110.053 52.0722 110.296 51.6787 110.578 51.2348L115.724 43.4861C116.046 43.0018 116.854 42.7597 118.145 42.7597H118.357C119.184 42.7597 119.769 42.8303 120.113 42.9716C120.456 43.1128 120.627 43.3449 120.627 43.6677C120.627 43.9099 120.486 44.2226 120.203 44.606L112.091 56.4409L120.778 69.2142C121.081 69.6581 121.232 69.981 121.232 70.1828C121.232 70.4854 121.041 70.7175 120.657 70.8789C120.274 71.0202 119.638 71.0908 118.75 71.0908H118.266C117.641 71.0908 117.146 71.0404 116.783 70.9395C116.44 70.8184 116.168 70.5964 115.966 70.2736L110.245 61.7379C109.922 61.2536 109.67 60.85 109.488 60.5272C109.307 60.1841 109.186 59.9622 109.125 59.8613C109.085 59.942 108.964 60.1539 108.762 60.4969C108.58 60.8198 108.318 61.2334 107.975 61.7379L102.194 70.3341C101.851 70.8386 101.043 71.0908 99.7722 71.0908H99.5906ZM129.102 82.1993C127.649 82.1993 126.923 81.8058 126.923 81.0188V51.0229C126.923 48.6822 126.812 46.9972 126.59 45.9681C126.368 44.9188 126.257 44.3437 126.257 44.2428C126.257 43.7989 126.59 43.4861 127.256 43.3045C127.942 43.1027 128.588 43.0018 129.193 43.0018C129.697 43.0018 130.071 43.2742 130.313 43.8191C130.555 44.3639 130.727 44.9188 130.828 45.4838C130.949 46.0488 131.029 46.4121 131.07 46.5735C133.632 43.8897 136.488 42.5478 139.636 42.5478C141.795 42.5478 143.661 43.1633 145.235 44.3942C146.809 45.6251 148.01 47.3302 148.837 49.5095C149.664 51.6888 150.078 54.1708 150.078 56.9555C150.078 59.9823 149.614 62.5753 148.686 64.7345C147.778 66.8936 146.496 68.5281 144.842 69.6379C143.187 70.7478 141.28 71.3027 139.121 71.3027C137.567 71.3027 136.185 71.0706 134.974 70.6065C133.784 70.1424 132.603 69.4664 131.433 68.5785V81.0188C131.433 81.8058 130.727 82.1993 129.314 82.1993H129.102ZM138.092 67.3375C140.493 67.277 142.299 66.3992 143.51 64.7042C144.721 63.0092 145.326 60.5473 145.326 57.3187C145.326 53.848 144.751 51.1743 143.601 49.2976C142.471 47.4008 140.836 46.4524 138.697 46.4524C137.507 46.4524 136.266 46.7753 134.974 47.421C133.703 48.0667 132.523 48.9849 131.433 50.1754V64.9161C133.41 66.5304 135.63 67.3375 138.092 67.3375ZM164.516 71.3027C162.72 71.3027 161.116 70.7579 159.703 69.6682C158.291 68.5785 157.585 66.6515 157.585 63.8869V31.7117C157.585 30.9248 158.301 30.5313 159.734 30.5313H159.976C161.388 30.5313 162.095 30.9248 162.095 31.7117V63.4632C162.095 64.9363 162.357 65.9654 162.882 66.5506C163.406 67.1357 164.113 67.4283 165 67.4283C165.666 67.4283 166.191 67.388 166.574 67.3073C166.958 67.2266 167.21 67.1862 167.331 67.1862C167.654 67.1862 167.916 67.5091 168.118 68.1548C168.34 68.8005 168.451 69.3151 168.451 69.6985C168.451 70.7679 167.139 71.3027 164.516 71.3027ZM184.645 71.3027C180.589 71.3027 177.491 70.092 175.352 67.6705C173.233 65.2288 172.174 61.6875 172.174 57.0463C172.174 52.4052 173.254 48.8335 175.413 46.3313C177.572 43.809 180.649 42.5478 184.645 42.5478C188.6 42.5478 191.626 43.7989 193.725 46.3011C195.824 48.7831 196.873 52.3648 196.873 57.0463C196.873 61.7076 195.834 65.249 193.755 67.6705C191.697 70.092 188.66 71.3027 184.645 71.3027ZM184.493 67.4283C187.116 67.4283 189.054 66.5808 190.305 64.8858C191.556 63.1706 192.181 60.5272 192.181 56.9555C192.181 53.3637 191.556 50.7102 190.305 48.9949C189.054 47.2797 187.116 46.4221 184.493 46.4221C181.89 46.4221 179.973 47.2797 178.742 48.9949C177.511 50.69 176.896 53.3435 176.896 56.9555C176.896 60.5473 177.501 63.1908 178.712 64.8858C179.943 66.5808 181.87 67.4283 184.493 67.4283ZM206.861 71.0908C206.095 71.0908 205.54 71 205.197 70.8184C204.854 70.6166 204.682 70.3139 204.682 69.9103V51.0229C204.682 48.6822 204.571 46.9972 204.349 45.9681C204.127 44.9188 204.016 44.3437 204.016 44.2428C204.016 43.7989 204.349 43.4861 205.015 43.3045C205.701 43.1027 206.347 43.0018 206.952 43.0018C207.437 43.0018 207.8 43.2641 208.042 43.7888C208.284 44.2933 208.496 45.0096 208.678 45.9378L208.829 46.5735C210.746 43.8897 212.824 42.5478 215.064 42.5478C216.093 42.5478 216.87 42.7395 217.395 43.1229C217.919 43.4861 218.182 43.9805 218.182 44.606C218.182 45.2114 218.071 45.8571 217.849 46.5432C217.647 47.2091 217.405 47.5421 217.122 47.5421C216.981 47.5421 216.729 47.4815 216.366 47.3605C216.043 47.2192 215.72 47.1183 215.397 47.0578C215.074 46.9771 214.661 46.9367 214.156 46.9367C213.329 46.9367 212.542 47.1788 211.795 47.6631C211.069 48.1474 210.453 48.6822 209.949 49.2674C209.444 49.8525 209.192 50.1754 209.192 50.2359V69.9103C209.192 70.3139 209.021 70.6166 208.678 70.8184C208.335 71 207.8 71.0908 207.073 71.0908H206.861ZM235.677 71.3027C231.217 71.3027 227.898 70.1424 225.719 67.8218C223.559 65.4811 222.48 61.9094 222.48 57.1069C222.48 52.3446 223.539 48.7326 225.658 46.2708C227.777 43.7888 230.894 42.5478 235.011 42.5478C238.684 42.5478 241.448 43.7384 243.304 46.1195C245.181 48.5006 246.119 51.9915 246.119 56.5923C246.119 56.7941 246.008 57.0766 245.786 57.4398C245.585 57.7828 245.332 58.0956 245.03 58.3781C244.747 58.6404 244.505 58.7716 244.303 58.7716H227.323C227.545 61.7783 228.312 63.9778 229.623 65.3701C230.955 66.7423 232.953 67.4283 235.616 67.4283C237.11 67.4283 238.391 67.2467 239.46 66.8835C240.55 66.5203 241.599 66.0764 242.608 65.5517C242.709 65.5113 242.861 65.4407 243.062 65.3398C243.264 65.2389 243.405 65.1885 243.486 65.1885C243.708 65.1885 243.96 65.3701 244.243 65.7333C244.545 66.0764 244.798 66.4698 245 66.9138C245.221 67.3375 245.332 67.6503 245.332 67.8521C245.332 68.296 244.889 68.7904 244.001 69.3352C243.113 69.8801 241.922 70.3442 240.429 70.7276C238.956 71.111 237.372 71.3027 235.677 71.3027ZM241.307 54.8973C241.307 49.2472 239.158 46.4221 234.86 46.4221C230.239 46.4221 227.726 49.2472 227.323 54.8973H241.307Z" fill="black"/>
<path d="M20.1284 71.454C14.0748 71.454 9.60514 69.8801 6.71956 66.7322C3.85416 63.5843 2.42146 58.6909 2.42146 52.052C2.42146 39.2788 8.41459 32.8922 20.4008 32.8922C22.0353 32.8922 23.7505 33.0536 25.5464 33.3765C27.3625 33.6994 28.876 34.1534 30.0867 34.7386C31.2974 35.3036 31.9028 35.9392 31.9028 36.6455C31.9028 37.15 31.701 37.8159 31.2974 38.6432C30.8938 39.4503 30.4196 40.1667 29.8748 40.7922C29.33 41.4178 28.8457 41.7306 28.4219 41.7306C28.3009 41.7306 28.0083 41.6297 27.5442 41.4279C26.5352 41.0243 25.4758 40.6913 24.366 40.429C23.2561 40.1465 21.884 40.0053 20.2495 40.0053C17.0814 40.0053 14.7306 41.0142 13.197 43.0321C11.6836 45.0298 10.9269 48.0566 10.9269 52.1126C10.9269 56.1685 11.6937 59.2256 13.2272 61.2839C14.7608 63.3421 17.0612 64.3712 20.1284 64.3712C21.6822 64.3712 23.0846 64.2401 24.3357 63.9778V57.1674H19.5836C19.0186 57.1674 18.6049 56.9555 18.3426 56.5318C18.1004 56.108 17.9794 55.4219 17.9794 54.4735V52.7482C17.9794 51.82 18.1004 51.144 18.3426 50.7202C18.6049 50.2965 19.0186 50.0846 19.5836 50.0846H30.5104C31.2772 50.0846 31.8322 50.2561 32.1752 50.5992C32.5182 50.922 32.6898 51.4568 32.6898 52.2034V67.1862C32.6898 68.8005 31.3378 69.9204 28.6338 70.546C25.9298 71.1513 23.0947 71.454 20.1284 71.454ZM51.5469 71.454C47.2892 71.454 44.0404 70.2029 41.8005 67.7008C39.5808 65.1986 38.471 61.5966 38.471 56.895C38.471 52.2135 39.5808 48.6317 41.8005 46.1497C44.0404 43.6677 47.2892 42.4267 51.5469 42.4267C55.8047 42.4267 59.0333 43.6677 61.2328 46.1497C63.4524 48.6115 64.5623 52.1933 64.5623 56.895C64.5623 61.5966 63.4524 65.1986 61.2328 67.7008C59.0333 70.2029 55.8047 71.454 51.5469 71.454ZM51.5469 65.128C53.2419 65.128 54.4829 64.4419 55.2699 63.0697C56.0771 61.6975 56.4806 59.6393 56.4806 56.895C56.4806 54.1708 56.0771 52.1227 55.2699 50.7505C54.4829 49.3783 53.2419 48.6923 51.5469 48.6923C48.1972 48.6923 46.5224 51.4265 46.5224 56.895C46.5224 59.6191 46.926 61.6774 47.7331 63.0697C48.5604 64.4419 49.8317 65.128 51.5469 65.128Z" fill="url(#paint0_linear_60_275)"/>
<defs>
<linearGradient id="paint0_linear_60_275" x1="0" y1="52.5" x2="67" y2="52.5" gradientUnits="userSpaceOnUse">
<stop stop-color="#9E2896"/>
<stop offset="0.5" stop-color="#007BC0"/>
<stop offset="0.75" stop-color="#18837E"/>
<stop offset="1" stop-color="#00884A"/>
</linearGradient>
</defs>
</svg>
